{"title":"30 Minutes Or Less 2011 R5 CAM Audio XViD DTRG","uid":6773365,"size":1479711437,"categoryP":"video","categoryS":"movies","magnet":"?xt=urn:btih:2011416bac0dd32e5705da4fa5852885bb437b42&amp;dn=30+Minutes+Or+Less+2011+R5+CAM+Audio+XViD+DTRG&amp;tr=udp%3A%2F%2Ftracker.openbittorrent.com%3A80&amp;tr=udp%3A%2F%2Fopen.demonii.com%3A1337&amp;tr=udp%3A%2F%2Ftracker.coppersurfer.tk%3A6969&amp;tr=udp%3A%2F%2Fexodus.desync.com%3A6969","seeders":1,"leechers":0,"uploader":"SAFCukO09","files":4,"time":1319646239,"description":"Format : AVI\nFormat/Info : Audio Video Interleave\nFile size : 1.37 GiB\nDuration : 1h 19mn\nOverall bit rate : 2 457 Kbps\nWriting application : VirtualDubMod 1.5.4.1 (build 2178/release)\nWriting library : VirtualDub build 32842/release\n\nVideo\nID : 0\nFormat : MPEG-4 Visual\nFormat profile : Advanced Simple@L5\nFormat settings, BVOP : 2\nFormat settings, QPel : No\nFormat settings, GMC : No warppoints\nFormat settings, Matrix : Custom\nCodec ID : XVID\nCodec ID/Hint : XviD\nDuration : 1h 19mn\nBit rate : 2 000 Kbps\nWidth : 720 pixels\nHeight : 304 pixels\nDisplay aspect ratio : 2.35:1\nFrame rate : 25.000 fps\nColor space : YUV\nChroma subsampling : 4:2:0\nBit depth : 8 bits\nScan type : Progressive\nCompression mode : Lossy\nBits/(Pixel*Frame) : 0.365\nStream size : 1.11 GiB (81%)\nWriting library : XviD 58\n\nAudio\nID : 1\nFormat : AC-3\nFormat/Info : Audio Coding 3\nMode extension : CM (complete main)\nCodec ID : 2000\nDuration : 1h 19mn\nBit rate mode : Constant\nBit rate : 448 Kbps\nChannel(s) : 6 channels\nChannel positions : Front: L C R, Side: L R, LFE\nSampling rate : 48.0 KHz\nBit depth : 16 bits\nCompression mode : Lossy\nStream size : 255 MiB (18%)\nAlignment : Split accross interleaves\nInterleave, duration : 40 ms (1.00 video frame)\n\n\n\n\n\n\n\n\n\n &lt;a href=&quot;\nhttp://www.imdb.com/title/tt1622547/&quot; rel=&quot;nofollow&quot; target=&quot;_NEW&quot;&gt;\nhttp://www.imdb.com/title/tt1622547/&lt;/a&gt;\n\n\n\nRatings: 6.6/10 from 5,895 users Metascore: 49/100\nReviews: 53 user | 134 critic | 37 from Metacritic.com\n\nTwo fledgling criminals kidnap a pizza delivery guy, strap a bomb to his chest, and inform him that he has mere hours to rob a bank or else...\nDirector:\nRuben Fleischer\nWriters:\nMichael Diliberti (screenplay), Michael Diliberti (story), and 1 more credit Ã‚Â»\nStars:\nJesse Eisenberg, Danny McBride and Nick Swardson\n\n\n\n\n\n\n\n\n\n\n\n\n\n\n\n\n\nSource Used\n\n\nUspet.za.30.minut.2011.XviD.DVDRip............Thanks\n\niLLUMINATi /HIVE/CM8 ..............................Thanks\n\n\nAs title suggests yes its cam audio nothing can be done because fact is no line will show for this now and imo we gotta either get used to these R5s with cam audio or just wait longer\n\n\nFiltered the vid and added a touch of bass to the audio ........sample is included so check it out\n\n\n\nEnjoy\n\n\n\n\n\nGreetz to IMAGiNE,Flawl3ss,BDK,Ez,CreWsaDe,TaRiQ786,ETRG,BHRG,iLLUMiNATi,ViSUALiSE,MiSTERE\n\n\n","torrent":{"xt":"urn:btih:2011416bac0dd32e5705da4fa5852885bb437b42","amp;dn":"30+Minutes+Or+Less+2011+R5+CAM+Audio+XViD+DTRG","amp;tr":["udp%3A%2F%2Ftracker.openbittorrent.com%3A80","udp%3A%2F%2Fopen.demonii.com%3A1337","udp%3A%2F%2Ftracker.coppersurfer.tk%3A6969","udp%3A%2F%2Fexodus.desync.com%3A6969"],"infoHash":"2011416bac0dd32e5705da4fa5852885bb437b42","infoHashBuffer":{"type":"Buffer","data":[32,17,65,107,172,13,211,46,87,5,218,79,165,133,40,133,187,67,123,66]},"announce":[],"urlList":[]}}